# xmcd
#
# Track frame offsets:
#	150
#	14494
#	27643
#	42160
#	55469
#	70106
#	88155
#	98413
#	121488
#	138041
#	159017
#	180163
#	193617
#	208447
#	227079
#	245395
#	263298
#	278282
#	288192
#	309406
#	325198
#	346801
#	363063
#
# Disc length: 5022 seconds
#
# Revision: 0
# Processed by: cddbd v1.5.2PL0 Copyright (c) Steve Scherf et al.
# Submitted via: audiograbber 1.83.01
#
DISCID=33139c17
DTITLE=John Denver - Seine Groﬂen Erfolge
DYEAR=1978
DGENRE=Country
TTITLE0=Take Me Home, Country Roads
TTITLE1=Follow Me 
TTITLE2=Starwood In Aspen
TTITLE3=For Baby (For Bobbie)
TTITLE4=Rhymes And Reasons 
TTITLE5=Leaving, On A Jet Plane
TTITLE6=The Eagle And The Hawk
TTITLE7=Sunshine On My Shoulders
TTITLE8=Goodbye Again
TTITLE9=Poems, Prayers And Promises 
TTITLE10=Rocky Mountain High 
TTITLE11=Annie's Song 
TTITLE12=Welcome To My Morning (Farewell Andromeda)
TTITLE13=Fly Away
TTITLE14=Like A Sad Song 
TTITLE15=Looking For Space
TTITLE16=Thank God I'm A Country Boy
TTITLE17=Grandma's Feather Bed
TTITLE18=Back Home Again 
TTITLE19=I'm Sorry 
TTITLE20=My Sweet Lady
TTITLE21=Calypso 
TTITLE22=This Old Guitar 
EXTD=
EXTT0=
EXTT1=
EXTT2=
EXTT3=
EXTT4=
EXTT5=
EXTT6=
EXTT7=
EXTT8=
EXTT9=
EXTT10=
EXTT11=
EXTT12=
EXTT13=
EXTT14=
EXTT15=
EXTT16=
EXTT17=
EXTT18=
EXTT19=
EXTT20=
EXTT21=
EXTT22=
PLAYORDER=
